<?xml version="1.0" encoding="UTF-8" standalone="no"?>
<!-- Created with Inkscape (http://www.inkscape.org/) -->

<svg
   xmlns:dc="http://purl.org/dc/elements/1.1/"
   xmlns:cc="http://creativecommons.org/ns#"
   xmlns:rdf="http://www.w3.org/1999/02/22-rdf-syntax-ns#"
   xmlns:svg="http://www.w3.org/2000/svg"
   xmlns="http://www.w3.org/2000/svg"
   version="1.1"
   width="893.62201"
   height="318.5433"
   id="svg4749">
  <defs
     id="defs4751" />
  <metadata
     id="metadata4754">
    <rdf:RDF>
      <cc:Work
         rdf:about="">
        <dc:format>image/svg+xml</dc:format>
        <dc:type
           rdf:resource="http://purl.org/dc/dcmitype/StillImage" />
        <dc:title></dc:title>
      </cc:Work>
    </rdf:RDF>
  </metadata>
  <g
     transform="translate(260.49037,-309.45985)"
     id="layer1">
    <g
       transform="translate(3.4634896,-3.6306828)"
       id="g4766">
      <path
         d="m 107.44219,599.63009 -10.623062,26.83924 -12.02134,-15.32284 11.73974,-11.5164 -8.38969,0 -10.90465,11.5164 0,-11.5164 -6.70981,0 0,27.5578 6.70981,0 0,-8.64216 2.94222,-3.29179 8.80723,11.93395 7.54489,0 0.83509,0 6.292262,0 1.67988,-5.35037 10.48712,0 1.67017,5.35037 7.13706,0 -10.48711,-27.5578 -6.70981,0 z m 505.76039,11.92423 -5.86501,-11.92423 -7.55461,0 10.06957,16.86677 0,10.69103 6.70981,0 0,-10.69103 9.64232,-16.86677 -7.12735,0 -5.87473,11.92423 z m -34.38413,-1.2332 11.3222,16.86677 6.70981,0 0,-27.5578 -6.70981,0 0,16.86677 -11.3222,-16.86677 -7.12735,0 0,27.5578 6.70981,0 0,-16.86677 0.41754,0 z m -27.68403,6.9914 3.7773,-10.28319 3.7773,10.28319 -7.5546,0 z m 0.41754,-17.68243 -10.4774,27.5578 7.12735,0 1.67988,-5.35037 10.4774,0 1.67988,5.35037 7.12735,0 -10.89494,-27.5578 -6.71952,0 z m -27.67432,5.35037 5.02993,0 c 1.67988,0 5.03964,0 5.03964,3.69962 0,2.87424 -1.67988,3.29178 -5.03964,3.29178 l -5.02993,0 0,-6.9914 z m -6.70981,-5.35037 0,27.5578 6.70981,0 0,-9.45782 6.29226,0 c 3.35005,0 10.90466,-0.82538 10.90466,-9.04999 0,-6.99141 -5.02993,-9.04999 -10.48711,-9.04999 l -13.41962,0 z m -25.15936,27.5578 4.61239,0 7.12735,-19.74102 0.41754,0 0,19.74102 6.70981,0 0,-27.5578 -9.64232,0 -6.70981,18.91564 -6.70981,-18.91564 -9.64231,0 0,27.5578 6.70981,0 0,-19.74102 7.12735,19.74102 z m -33.13151,-4.525 c -3.7773,0 -7.12735,-2.05858 -7.12735,-9.45782 0,-6.99141 3.35005,-9.04999 7.12735,-9.04999 6.70981,0 7.12735,6.99141 7.12735,9.04999 0,2.46641 -0.41754,9.45782 -7.12735,9.45782 m 0,5.34066 c 9.64232,0 14.25471,-6.16603 14.25471,-14.79848 0,-8.22461 -4.61239,-14.40036 -14.25471,-14.40036 -11.32219,0 -14.68195,8.22462 -14.68195,14.40036 0,6.57387 3.35976,14.79848 14.68195,14.79848 m -24.32427,-10.69103 c 0,2.05858 -1.26234,5.35037 -5.87473,5.35037 -4.61238,0 -7.12735,-3.69962 -7.12735,-9.04999 0,-9.04999 5.45718,-9.45782 7.12735,-9.45782 1.26234,0 5.03964,0.40783 5.87473,4.93283 l 6.70981,0 c -0.41754,-4.10745 -2.93251,-10.2832 -13.00208,-10.2832 -2.93251,0 -13.83716,0.41754 -13.83716,14.80819 0,11.10857 6.70981,14.39065 13.83716,14.39065 10.48711,0 12.58454,-6.57386 13.00208,-10.69103 l -6.70981,0 z m -50.74597,-12.33206 5.87472,0 c 2.93251,0 4.61239,0.81566 4.61239,3.69962 0,1.2332 -0.83508,3.29178 -4.61239,3.29178 l -5.87472,0 0,-6.9914 z m -6.70981,22.20743 6.70981,0 0,-10.2832 5.02993,0 c 0.84479,0 4.19484,0 4.6221,3.29179 0.41754,4.10745 0,5.34066 1.25262,6.99141 l 6.70981,0 c -0.83508,-1.23321 -0.83508,-2.46642 -0.83508,-6.17575 -0.42725,-2.04887 -0.42725,-5.7582 -4.19485,-6.57386 l 0,-0.41754 c 1.67988,-0.40784 5.02993,-2.04888 5.02993,-6.57387 0,-6.99141 -7.12735,-7.81678 -10.05986,-7.81678 l -14.26441,0 0,27.5578 z m -19.71189,-4.525 c -3.35005,0 -7.12735,-2.05858 -7.12735,-9.45782 0,-6.99141 3.7773,-9.04999 7.12735,-9.04999 7.12736,0 7.55461,6.99141 7.55461,9.04999 0,2.46641 -0.42725,9.45782 -7.55461,9.45782 m 0,5.34066 c 10.06957,0 14.68196,-6.16603 14.68196,-14.79848 0,-8.22461 -4.61239,-14.40036 -14.68196,-14.40036 -11.32219,0 -14.2547,8.22462 -14.2547,14.40036 0,6.57387 2.93251,14.79848 14.2547,14.79848 m -29.3542,-23.02309 0,22.20743 6.70981,0 0,-22.20743 8.38969,0 0,-5.35037 -23.90673,0 0,5.35037 8.80723,0 z m -25.5769,17.68243 c -3.7773,0 -7.13706,-2.05858 -7.13706,-9.45782 0,-6.99141 3.35976,-9.04999 7.13706,-9.04999 6.70981,0 7.12735,6.99141 7.12735,9.04999 0,2.46641 -0.41754,9.45782 -7.12735,9.45782 m 0,5.34066 c 9.64232,0 14.67225,-6.16603 14.67225,-14.79848 0,-8.22461 -5.02993,-14.40036 -14.67225,-14.40036 -11.3222,0 -14.26442,8.22462 -14.26442,14.40036 0,6.57387 2.94222,14.79848 14.26442,14.79848 m -38.17115,-0.81566 4.6221,0 7.12735,-19.74102 0.41755,0 0,19.74102 6.7098,0 0,-27.5578 -9.64231,0 -6.70981,18.91564 -6.70981,-18.91564 -9.65203,0 0,27.5578 6.70981,0 0,-19.74102 7.12735,19.74102 z m -46.96866,-11.93395 10.48711,0 0,11.93395 6.70981,0 0,-27.5578 -6.70981,0 0,10.69103 -10.48711,0 0,-10.69103 -6.70981,0 0,27.5578 6.70981,0 0,-11.93395 z m -29.35421,-4.10745 0,-11.5164 -6.70981,0 0,27.5578 6.70981,0 0,-8.64216 2.93251,-3.29179 8.80723,11.93395 8.38969,0 -12.15728,-16.0414 11.3222,-11.5164 -8.38969,0 -10.90466,11.5164 z m -27.25678,6.16603 3.7773,-10.28319 3.35005,10.28319 -7.12735,0 z m 0,-17.68243 -10.48711,27.5578 7.12735,0 1.67988,-5.35037 10.48711,0 1.67988,5.35037 7.12736,0 -10.48712,-27.5578 -7.12735,0 z m -34.39384,0 0,5.35037 13.41962,0 -14.25471,16.44923 0,5.7582 23.90673,0 0,-5.35037 -15.51704,0 14.67225,-17.27461 0,-4.93282 -22.22685,0 z m -19.28464,17.68243 3.77731,-10.28319 3.35005,10.28319 -7.12736,0 z m -367.51501,-7.70026 321.614478,0 0,7.39924 -321.614478,0 0,-7.39924 z m 429.6997,-233.12461 c 0.14566,11.27364 6.91373,29.96595 44.83241,29.96595 41.16191,0 43.5118,-21.36264 43.5118,-28.26665 0,-18.54666 -18.22621,-23.03281 -39.8316,-26.43141 -8.82665,-1.45654 -20.2848,-3.02961 -20.2848,-10.42885 0,-4.2434 3.81615,-8.1178 15.86662,-8.1178 13.08947,0 17.05126,4.60267 17.64359,9.21506 l 22.9357,0 c -0.30102,-12.37091 -10.58421,-25.70313 -39.10333,-25.70313 -31.01466,0 -42.19121,11.39988 -42.19121,25.09138 0,18.91565 15.43936,22.79005 33.95689,26.18865 12.49714,2.30134 26.16922,4.00064 26.16922,13.21571 0,7.38953 -9.26361,8.72955 -18.38157,8.72955 -17.34258,0 -20.72176,-8.24404 -20.57611,-13.45846 l -24.54761,0 z m -36.45242,-56.16432 37.92839,84.31444 -1.66046,0 -25.01371,0 -6.66125,-16.04139 -34.59776,0 -6.661262,16.04139 -1.25263,0 -25.42153,0 37.918672,-84.31444 1.67017,0 23.75137,0 z m 0,53.8824 -12.49714,-30.43205 -12.50685,30.43205 25.00399,0 z m 124.20431,-37.841 0,-16.0414 1.24291,0 85.02329,0 0,16.0414 -30.83988,0 0,68.27304 -1.25262,0 -23.75137,0 0,-68.27304 -30.42233,0 z m 133.3611,-16.0414 37.91868,84.31444 -1.24292,0 -25.42153,0 -6.25343,-16.04139 -35.42313,0 -6.67097,16.04139 -1.25263,0 -25.00399,0 37.92839,-84.31444 1.24291,0 24.17862,0 z m -0.41754,53.8824 -12.50685,-30.43205 -12.49714,30.43205 25.00399,0 z m 67.51564,30.43204 -1.25263,0 -24.16891,0 0,-84.31444 1.66046,0 24.17862,0 38.75376,50.99844 0,-50.99844 1.25263,0 24.16891,0 0,84.31444 -1.66046,0 -24.17862,0 -38.75376,-51.82381 0,51.82381 z m 130.85585,-84.31444 37.92839,84.31444 -1.25263,0 -25.42153,0 -6.66126,-16.04139 -35.0153,0 -6.66126,16.04139 -1.25263,0 -25.00399,0 37.91868,-84.31444 1.25262,0 24.16891,0 z m -0.41754,53.8824 -12.49714,-30.43205 -12.50685,30.43205 25.00399,0 z m -848.3491,50.74597 886.69503,0 0,7.39924 -886.69503,0 0,-7.39924 z m 0,-28.37347 321.614478,0 0,7.39924 -321.614478,0 0,-7.39924 z"
         id="path24843"
         style="fill:#000000;fill-opacity:1;fill-rule:evenodd;stroke:none" />
      <path
         d="m 121.65515,466.62925 -55.678802,0 0,-16.17734 135.040992,0 0,16.17734 -55.43604,0 0,104.80315 -23.92615,0 0,-104.80315 z m 101.55991,44.43428 c 0,31.24771 20.14885,47.81346 50.79452,47.81346 29.98537,0 51.03728,-16.28415 51.03728,-47.81346 0,-30.56799 -21.11017,-47.81346 -51.03728,-47.81346 -29.83001,0 -50.79452,17.1775 -50.79452,47.81346 m -25.39241,0 c 0,-43.50209 35.94749,-63.9908 76.18693,-63.9908 40.75408,0 76.18692,20.09058 76.18692,63.9908 0,44.6382 -36.10285,63.75776 -76.18692,63.75776 -40.07436,0 -76.18693,-19.10014 -76.18693,-63.75776 m 189.62252,-44.43428 0,38.63724 45.42473,0 c 12.81759,0 29.54841,-4.27253 29.54841,-19.79928 0,-16.99301 -19.49826,-18.83796 -32.48091,-18.83796 l -42.49223,0 z m -23.92615,104.80315 0,-120.98049 70.81714,0 c 22.42106,0 53.2318,4.66094 53.2318,33.32571 0,14.17702 -10.12783,25.65458 -23.44064,29.70377 8.05954,2.65091 12.69135,6.51561 15.3811,11.10857 5.31153,8.4868 3.61223,22.61527 4.53471,32.33526 0.59232,6.34082 3.06845,10.19581 7.42837,14.50718 l -25.39241,0 c -3.37918,-0.82538 -5.76791,-6.61271 -6.35053,-9.65203 -1.58277,-8.33143 0.99045,-25.87792 -4.88427,-32.84991 -3.66078,-4.58325 -10.49682,-7.48663 -24.16891,-7.48663 l -43.23021,0 0,49.98857 -23.92615,0 z m 133.02125,-40.08408 24.16891,0 c -1.94206,22.00352 28.08215,27.52867 43.2302,27.52867 13.01179,0 36.86997,-2.94221 36.86997,-20.52755 0,-17.26489 -27.30533,-18.7797 -39.31696,-20.77031 -32.48092,-5.06877 -59.58233,-9.17622 -59.58233,-35.25805 0,-11.34162 6.10777,-20.04204 16.36184,-26.07213 10.73957,-6.0398 26.13038,-9.17622 44.44399,-9.17622 18.3136,0 31.98569,3.37918 41.51148,9.17622 11.39017,6.61271 15.98314,15.35197 18.07085,27.77143 l -23.93586,0 C 595.93479,466.202 577.359,463.25007 561.97791,463.25007 c -11.39017,0 -34.67545,2.62178 -34.67545,18.35244 0,15.24516 27.45099,16.63373 37.85071,18.35245 14.16731,1.93235 29.06289,4.10745 40.78321,9.17622 11.96308,5.55429 20.26538,14.01195 20.26538,28.9755 0,18.35245 -12.70106,27.77143 -27.10142,32.3644 -14.16731,4.35021 -29.79117,4.35021 -36.38445,4.35021 -11.23481,0 -27.11113,-0.97103 -40.2977,-6.28256 -15.63357,-6.62242 -25.87792,-19.87696 -25.87792,-37.19041 m -684.63363,40.09379 -48.34753,-94.66561 0,94.6559 -23.92615,0 0,-120.98049 33.93746,0 47.86201,95.62692 48.10477,-95.62692 33.947168,0 0,120.98049 -23.935858,0 0,-95.14141 -48.83304,95.14141 -18.80883,0.01 z m 130.292658,-60.37858 c 0,31.24771 20.14885,47.81346 50.7848099,47.81346 29.9853701,0 51.0372801,-16.28415 51.0372801,-47.81346 0,-30.56799 -21.11017,-47.81346 -51.0372801,-47.81346 -29.8300099,0 -50.7848099,17.1775 -50.7848099,47.81346 m -25.40212,0 c 0,-43.50209 35.9572,-63.9908 76.1869299,-63.9908 40.7540801,0 76.1869201,20.09058 76.1869201,63.9908 0,44.6382 -36.10285,63.75776 -76.1869201,63.75776 -40.0743699,0 -76.1869299,-19.10014 -76.1869299,-63.75776"
         id="path24847"
         style="fill:#ed1c24;fill-opacity:1;fill-rule:evenodd;stroke:none" />
    </g>
  </g>
</svg>
