<svg width="100" height="100" viewBox="0 0 100 100" fill="none" xmlns="http://www.w3.org/2000/svg">
<path d="M65.6249 29.6875V41.7031C65.6225 45.992 63.9397 50.1091 60.9374 53.1719C58.3472 55.8639 54.8513 57.5005 51.1249 57.7656C48.914 57.9306 46.6934 57.62 44.6127 56.8545C42.5319 56.089 40.6394 54.8866 39.0624 53.3281C39.0312 53.2969 38.9843 53.2656 38.9531 53.2344C37.4999 51.7854 36.3474 50.0635 35.5617 48.1678C34.7761 46.272 34.3727 44.2396 34.3749 42.1875V28.125C34.3749 26.8818 34.8688 25.6895 35.7479 24.8104C36.627 23.9314 37.8192 23.4375 39.0624 23.4375H59.3749C61.0325 23.4375 62.6223 24.096 63.7944 25.2681C64.9665 26.4402 65.6249 28.0299 65.6249 29.6875Z" fill="#FFBCAB"/>
<path d="M42.1875 53.125H57.8125V70.3125H42.1875V53.125Z" fill="#FFAC96"/>
<path d="M54.6875 42.1875H45.3125C43.6549 42.1875 42.0652 42.846 40.8931 44.0181C39.721 45.1902 39.0625 46.7799 39.0625 48.4375V53.3328C40.6401 54.89 42.5329 56.0913 44.6135 56.8559C46.6942 57.6205 48.9145 57.9307 51.125 57.7656C54.8496 57.4998 58.3444 55.8665 60.9375 53.1797V48.4375C60.9375 46.7799 60.279 45.1902 59.1069 44.0181C57.9348 42.846 56.3451 42.1875 54.6875 42.1875Z" fill="#231F20"/>
<path d="M65.625 29.6875V31.25H68.75C69.3113 31.2544 69.8671 31.3602 70.3906 31.5625L71.0938 21.0328C71.1964 19.5355 70.9894 18.0331 70.4857 16.6193C69.982 15.2056 69.1924 13.9107 68.1662 12.8156C67.1399 11.7205 65.8991 10.8485 64.521 10.2541C63.1429 9.65976 61.6571 9.3557 60.1563 9.36093L58.1875 9.375C57.0206 7.90952 55.5375 6.72673 53.8491 5.91503C52.1608 5.10332 50.3108 4.68369 48.4375 4.6875H26.5625C26.5611 7.15019 27.0451 9.58901 27.9868 11.8645C28.9286 14.14 30.3097 16.2076 32.051 17.949C33.7924 19.6903 35.86 21.0714 38.1355 22.0132C40.411 22.9549 42.8498 23.4389 45.3125 23.4375H59.375C61.0326 23.4375 62.6223 24.096 63.7944 25.2681C64.9665 26.4402 65.625 28.0299 65.625 29.6875Z" fill="#231F20"/>
<path d="M45.3125 23.4375C42.3348 23.441 39.3992 22.734 36.7496 21.3752C34.1001 20.0164 31.8129 18.0451 30.0781 15.625C29.136 17.2463 28.7057 19.1143 28.8437 20.9844L29.5937 31.5625C30.1214 31.3557 30.6832 31.2497 31.25 31.25H34.375V28.125C34.375 26.8818 34.8688 25.6895 35.7479 24.8104C36.627 23.9314 37.8193 23.4375 39.0625 23.4375H45.3125Z" fill="#231F20"/>
<path d="M62.5 62.5V73.4375L50 67.1875L37.5 73.4375V62.5L31.25 63.9703V95.3125H68.75V63.9703L62.5 62.5Z" fill="#8D98FE"/>
<path d="M65.625 63.236V95.3125H68.75V63.9703L65.625 63.236Z" fill="#8D98FE"/>
<path d="M34.375 63.236V95.3125H31.25V63.9703L34.375 63.236Z" fill="#8D98FE"/>
<path d="M20.575 66.4828C17.8325 67.128 15.3883 68.6808 13.6389 70.8893C11.8896 73.0979 10.9376 75.8326 10.9375 78.65V95.3125H25V65.4406L20.575 66.4828Z" fill="#8D98FE"/>
<path d="M68.75 63.9703V95.3125H75V65.4406L68.75 63.9703Z" fill="#F3F9FF"/>
<path d="M25 65.4406V95.3125H31.25V63.9703L25 65.4406Z" fill="#F3F9FF"/>
<path d="M79.425 66.4828L75 65.4406V95.3125H89.0625V78.65C89.0624 75.8326 88.1104 73.0979 86.3611 70.8893C84.6117 68.6808 82.1675 67.128 79.425 66.4828Z" fill="#8D98FE"/>
<path d="M62.5 62.5V60.9375L50 67.1875L62.5 73.4375V62.5Z" fill="#F3F9FF"/>
<path d="M50 67.1875L37.5 60.9375V62.5V73.4375L50 67.1875Z" fill="#F3F9FF"/>
<path d="M65.625 31.25V40.625H68.75C69.8466 40.6251 70.9084 40.2401 71.7501 39.5371C72.5918 38.8342 73.1599 37.858 73.3552 36.7789C73.5506 35.6999 73.3608 34.5865 72.8189 33.6331C72.2771 32.6797 71.4177 31.9469 70.3906 31.5625C69.8671 31.3602 69.3112 31.2544 68.75 31.25H65.625Z" fill="#FFB8A5"/>
<path d="M31.25 31.25C30.0068 31.25 28.8145 31.7439 27.9354 32.6229C27.0564 33.502 26.5625 34.6943 26.5625 35.9375C26.5625 37.1807 27.0564 38.373 27.9354 39.2521C28.8145 40.1311 30.0068 40.625 31.25 40.625H34.375V31.25H31.25Z" fill="#FFB8A5"/>
<path d="M79.7812 64.9688L64.0625 61.2656V60.9375C64.0617 60.6712 63.9928 60.4094 63.8624 60.1772C63.732 59.945 63.5443 59.7499 63.3173 59.6106C63.0903 59.4712 62.8315 59.3923 62.5654 59.3811C62.2993 59.37 62.0347 59.427 61.7968 59.5469L59.375 60.75V56.5C61.7182 54.9054 63.6478 52.7753 65.0037 50.2863C66.3596 47.7973 67.1028 45.021 67.1718 42.1875H68.75C70.11 42.1918 71.434 41.7509 72.52 40.9322C73.6059 40.1135 74.3941 38.9619 74.7642 37.6532C75.1343 36.3445 75.066 34.9507 74.5697 33.6845C74.0734 32.4183 73.1764 31.3493 72.0156 30.6406L72.6562 21.1406C72.77 19.4313 72.5316 17.7167 71.9557 16.1033C71.3799 14.4898 70.4788 13.0118 69.3084 11.7608C68.1379 10.5098 66.7231 9.51251 65.1515 8.83066C63.5799 8.14881 61.885 7.79695 60.1718 7.79688H60.1406L58.9062 7.8125C57.5926 6.3345 55.9801 5.15234 54.1754 4.34425C52.3706 3.53616 50.4149 3.12058 48.4375 3.125H26.5625C26.1481 3.125 25.7506 3.28962 25.4576 3.58265C25.1646 3.87568 25 4.2731 25 4.6875C24.9929 8.61589 26.1333 12.4608 28.2812 15.75C27.506 17.4195 27.1621 19.2569 27.2812 21.0938L27.9687 30.6406C26.8114 31.3528 25.9184 32.4235 25.4255 33.6899C24.9327 34.9563 24.867 36.349 25.2384 37.6562C25.6099 38.9633 26.3981 40.1133 27.4833 40.9313C28.5684 41.7493 29.8911 42.1904 31.25 42.1875H32.8125C32.805 44.4459 33.2459 46.6832 34.1096 48.77C34.9732 50.8567 36.2425 52.7512 37.8437 54.3438C38.6944 55.179 39.6261 55.9274 40.625 56.5781V60.75L38.2031 59.5469C37.9652 59.427 37.7007 59.37 37.4346 59.3811C37.1685 59.3923 36.9096 59.4712 36.6826 59.6106C36.4556 59.7499 36.268 59.945 36.1376 60.1772C36.0072 60.4094 35.9383 60.6712 35.9375 60.9375V61.2656L20.2187 64.9688C17.1274 65.6832 14.3705 67.4269 12.4003 69.9138C10.43 72.4008 9.36327 75.4834 9.37497 78.6563V95.3125C9.37497 95.7269 9.53959 96.1243 9.83262 96.4174C10.1256 96.7104 10.5231 96.875 10.9375 96.875H89.0625C89.4769 96.875 89.8743 96.7104 90.1673 96.4174C90.4604 96.1243 90.625 95.7269 90.625 95.3125V78.6563C90.6367 75.4834 89.5699 72.4008 87.5997 69.9138C85.6294 67.4269 82.8726 65.6832 79.7812 64.9688ZM60.9375 63.4688V70.9063L53.5 67.1875L60.9375 63.4688ZM50 65.4375L43.75 62.3125V58.1875C45.7369 58.9652 47.8507 59.3678 49.9843 59.375C50.4062 59.375 50.8125 59.3594 51.2343 59.3281C52.9557 59.2029 54.6475 58.8129 56.25 58.1719V62.3125L50 65.4375ZM59.375 52.5469C57.0923 54.6913 54.1398 55.9827 51.0156 56.2031C49.1332 56.3369 47.2432 56.0904 45.4581 55.4784C43.6729 54.8663 42.0293 53.9012 40.625 52.6406V48.4375C40.6287 47.1954 41.1237 46.0053 42.002 45.127C42.8803 44.2488 44.0704 43.7537 45.3125 43.75H54.6875C55.9295 43.7537 57.1197 44.2488 57.9979 45.127C58.8762 46.0053 59.3713 47.1954 59.375 48.4375V52.5469ZM71.875 35.9375C71.8725 36.7655 71.5425 37.559 70.9569 38.1445C70.3714 38.73 69.578 39.06 68.75 39.0625H67.1875V32.8125H68.75C69.578 32.815 70.3714 33.145 70.9569 33.7305C71.5425 34.316 71.8725 35.1095 71.875 35.9375ZM28.1875 6.25H48.4375C50.0759 6.24614 51.6941 6.61228 53.1713 7.32112C54.6485 8.02996 55.9466 9.0632 56.9687 10.3438C57.1116 10.5347 57.2984 10.6883 57.5132 10.7917C57.7281 10.8951 57.9648 10.9451 58.2031 10.9375L60.1562 10.9219H60.1875C61.471 10.9212 62.7409 11.1846 63.9184 11.6955C65.0958 12.2064 66.1556 12.954 67.0319 13.8919C67.9082 14.8297 68.5823 15.9377 69.0122 17.1471C69.4422 18.3565 69.6188 19.6413 69.5312 20.9219L68.9531 29.7031C68.875 29.7031 68.8125 29.6875 68.75 29.6875H67.1875C67.1875 27.6155 66.3644 25.6284 64.8992 24.1632C63.4341 22.6981 61.447 21.875 59.375 21.875H45.3125C42.5843 21.8707 39.8959 21.22 37.4679 19.976C35.0398 18.7321 32.941 16.9305 31.3437 14.7188C29.5556 12.2276 28.4659 9.30379 28.1875 6.25ZM32.8125 39.0625H31.25C30.4212 39.0625 29.6263 38.7333 29.0403 38.1472C28.4542 37.5612 28.125 36.7663 28.125 35.9375C28.125 35.1087 28.4542 34.3138 29.0403 33.7278C29.6263 33.1417 30.4212 32.8125 31.25 32.8125H32.8125V39.0625ZM32.8125 28.125V29.6875H31.25C31.1718 29.6875 31.1093 29.7031 31.0312 29.7031L30.4062 20.875C30.3475 20.1266 30.4002 19.3736 30.5625 18.6406C32.1278 20.295 33.9607 21.6737 35.9843 22.7188C35.0237 23.2576 34.2236 24.0422 33.6662 24.9923C33.1088 25.9423 32.8141 27.0235 32.8125 28.125ZM37.5 48.4375V48.625C36.4713 46.6352 35.9354 44.4275 35.9375 42.1875V28.125C35.9399 27.297 36.27 26.5035 36.8555 25.918C37.441 25.3325 38.2344 25.0025 39.0625 25H59.375C60.617 25.0037 61.8072 25.4988 62.6854 26.377C63.5637 27.2553 64.0588 28.4454 64.0625 29.6875V41.7031C64.0662 44.0182 63.5312 46.3023 62.5 48.375C62.481 46.3146 61.6499 44.3449 60.1871 42.8938C58.7243 41.4427 56.7479 40.6274 54.6875 40.625H45.3125C43.2405 40.625 41.2533 41.4481 39.7882 42.9132C38.3231 44.3784 37.5 46.3655 37.5 48.4375ZM39.0625 63.4688L46.5 67.1875L39.0625 70.9063V63.4688ZM23.4375 93.75H12.5V78.6563C12.4919 76.1871 13.3222 73.7883 14.855 71.8525C16.3878 69.9166 18.5322 68.5584 20.9375 68L23.4375 67.4219V93.75ZM29.6875 93.75H26.5625V66.6719L29.6875 65.9375V93.75ZM67.1875 93.75H32.8125V65.2031L35.9375 64.4688V73.4375C35.9369 73.703 36.0041 73.9643 36.1326 74.1967C36.2611 74.4291 36.4467 74.6249 36.6718 74.7656C36.921 74.9187 37.2076 74.9998 37.5 75C37.7444 74.9968 37.9848 74.9381 38.2031 74.8281L50 68.9375L61.7968 74.8281C62.0151 74.9381 62.2556 74.9968 62.5 75C62.7923 74.9998 63.079 74.9187 63.3281 74.7656C63.5533 74.6249 63.7389 74.4291 63.8674 74.1967C63.9958 73.9643 64.063 73.703 64.0625 73.4375V64.4688L67.1875 65.2031V93.75ZM73.4375 93.75H70.3125V65.9375L73.4375 66.6719V93.75ZM87.5 93.75H76.5625V67.4219L79.0625 68C81.4677 68.5584 83.6122 69.9166 85.1449 71.8525C86.6777 73.7883 87.508 76.1871 87.5 78.6563V93.75Z" fill="#231F20"/>
<path d="M56.25 37.5C56.6644 37.5 57.0618 37.3354 57.3549 37.0424C57.6479 36.7493 57.8125 36.3519 57.8125 35.9375V34.375C57.8125 33.9606 57.6479 33.5632 57.3549 33.2701C57.0618 32.9771 56.6644 32.8125 56.25 32.8125C55.8356 32.8125 55.4382 32.9771 55.1451 33.2701C54.8521 33.5632 54.6875 33.9606 54.6875 34.375V35.9375C54.6875 36.3519 54.8521 36.7493 55.1451 37.0424C55.4382 37.3354 55.8356 37.5 56.25 37.5Z" fill="#231F20"/>
<path d="M55.5281 49.2828C55.7052 49.179 55.8601 49.0413 55.9839 48.8776C56.1078 48.7139 56.1982 48.5274 56.25 48.3288C56.3018 48.1302 56.314 47.9233 56.2858 47.72C56.2576 47.5166 56.1897 47.3208 56.0859 47.1438C55.9821 46.9667 55.8444 46.8118 55.6807 46.6879C55.517 46.564 55.3305 46.4736 55.1319 46.4218C54.9333 46.37 54.7264 46.3579 54.523 46.386C54.3197 46.4142 54.1239 46.4821 53.9468 46.5859C52.7561 47.2825 51.4023 47.6517 50.0229 47.6561C48.6434 47.6605 47.2873 47.2999 46.0921 46.6109C45.9143 46.5009 45.7161 46.4277 45.5094 46.3956C45.3027 46.3636 45.0917 46.3734 44.8889 46.4244C44.686 46.4754 44.4955 46.5667 44.3286 46.6927C44.1617 46.8187 44.0217 46.977 43.9171 47.1581C43.8125 47.3392 43.7453 47.5395 43.7195 47.747C43.6937 47.9546 43.7099 48.1652 43.767 48.3664C43.8241 48.5676 43.921 48.7553 44.052 48.9184C44.1831 49.0814 44.3455 49.2165 44.5296 49.3156C46.203 50.2803 48.1018 50.7853 50.0333 50.7795C51.9648 50.7738 53.8605 50.2574 55.5281 49.2828Z" fill="#FFBCAB"/>
<path d="M43.75 37.5C44.1644 37.5 44.5618 37.3354 44.8549 37.0424C45.1479 36.7493 45.3125 36.3519 45.3125 35.9375V34.375C45.3125 33.9606 45.1479 33.5632 44.8549 33.2701C44.5618 32.9771 44.1644 32.8125 43.75 32.8125C43.3356 32.8125 42.9382 32.9771 42.6451 33.2701C42.3521 33.5632 42.1875 33.9606 42.1875 34.375V35.9375C42.1875 36.3519 42.3521 36.7493 42.6451 37.0424C42.9382 37.3354 43.3356 37.5 43.75 37.5Z" fill="#231F20"/>
<path d="M50 73.4375C49.5856 73.4375 49.1882 73.6021 48.8951 73.8951C48.6021 74.1882 48.4375 74.5856 48.4375 75V76.5625C48.4375 76.9769 48.6021 77.3743 48.8951 77.6674C49.1882 77.9604 49.5856 78.125 50 78.125C50.4144 78.125 50.8118 77.9604 51.1049 77.6674C51.3979 77.3743 51.5625 76.9769 51.5625 76.5625V75C51.5625 74.5856 51.3979 74.1882 51.1049 73.8951C50.8118 73.6021 50.4144 73.4375 50 73.4375Z" fill="#231F20"/>
<path d="M50 81.25C49.5856 81.25 49.1882 81.4146 48.8951 81.7076C48.6021 82.0007 48.4375 82.3981 48.4375 82.8125V84.375C48.4375 84.7894 48.6021 85.1868 48.8951 85.4799C49.1882 85.7729 49.5856 85.9375 50 85.9375C50.4144 85.9375 50.8118 85.7729 51.1049 85.4799C51.3979 85.1868 51.5625 84.7894 51.5625 84.375V82.8125C51.5625 82.3981 51.3979 82.0007 51.1049 81.7076C50.8118 81.4146 50.4144 81.25 50 81.25Z" fill="#231F20"/>
<path d="M51.5625 92.1875V90.625C51.5625 90.2106 51.3979 89.8132 51.1049 89.5201C50.8118 89.2271 50.4144 89.0625 50 89.0625C49.5856 89.0625 49.1882 89.2271 48.8951 89.5201C48.6021 89.8132 48.4375 90.2106 48.4375 90.625V92.1875C48.4375 92.6019 48.6021 92.9993 48.8951 93.2924C49.1882 93.5854 49.5856 93.75 50 93.75C50.4144 93.75 50.8118 93.5854 51.1049 93.2924C51.3979 92.9993 51.5625 92.6019 51.5625 92.1875Z" fill="#231F20"/>
</svg>
