<svg width="100" height="97" viewBox="0 0 100 97" fill="none" xmlns="http://www.w3.org/2000/svg">
<g filter="url(#filter0_d_1_388)">
<path d="M82.8125 23.5625H4.6875V86.0625H82.8125V23.5625Z" fill="#8DFEFE"/>
<path d="M4.6875 86.0625H82.8125V23.5625C82.8125 58.1078 47.8703 86.0625 4.6875 86.0625Z" fill="#8DFEFE"/>
<path d="M82.8125 23.5625L71.875 1.6875H48.4375L51.5625 23.5625H82.8125Z" fill="#8DFEFE"/>
<path d="M39.0625 1.6875H15.625L4.6875 23.5625H35.9375L39.0625 1.6875Z" fill="#8DFEFE"/>
<path d="M51.5625 23.5625H35.9375V48.5625H51.5625V23.5625Z" fill="#F3F9FF"/>
<path d="M51.5625 23.5625L48.4375 1.6875H39.0625L35.9375 23.5625H51.5625Z" fill="#F3F9FF"/>
<path d="M76.5625 48.5625L57.8125 54.8125V63.0937C57.8125 68.2384 59.0826 73.3034 61.5102 77.8393C63.9377 82.3752 67.4475 86.2416 71.7281 89.0953L76.5625 92.3125L81.3969 89.0891C85.6766 86.2359 89.1859 82.3705 91.6134 77.8358C94.0408 73.3011 95.3115 68.2373 95.3125 63.0937V54.8125L76.5625 48.5625Z" fill="#F3F9FF"/>
<path d="M59.375 84.5H6.25V25.125H34.375V48.5625C34.375 48.9769 34.5396 49.3743 34.8326 49.6674C35.1257 49.9604 35.5231 50.125 35.9375 50.125H51.5625C51.9769 50.125 52.3743 49.9604 52.6674 49.6674C52.9604 49.3743 53.125 48.9769 53.125 48.5625V25.125H81.25V44.5312C81.25 44.9457 81.4146 45.3431 81.7076 45.6361C82.0007 45.9291 82.3981 46.0938 82.8125 46.0938C83.2269 46.0938 83.6243 45.9291 83.9174 45.6361C84.2104 45.3431 84.375 44.9457 84.375 44.5312V23.5625C84.375 23.5422 84.3641 23.525 84.3641 23.5063C84.3575 23.3417 84.3248 23.1793 84.2672 23.025C84.2531 22.9906 84.2453 22.9563 84.2313 22.9219C84.2172 22.8875 84.2203 22.8828 84.2109 22.8641L73.2734 0.989063C73.1436 0.729324 72.944 0.510889 72.697 0.358265C72.45 0.20564 72.1654 0.124865 71.875 0.125H15.625C15.3346 0.124865 15.05 0.20564 14.803 0.358265C14.556 0.510889 14.3564 0.729324 14.2266 0.989063L3.28906 22.8641C3.27969 22.8828 3.27813 22.9031 3.26875 22.9219C3.25938 22.9406 3.24688 22.9906 3.23281 23.025C3.17535 23.1788 3.14265 23.3407 3.13594 23.5047C3.13594 23.525 3.125 23.5422 3.125 23.5625V86.0625C3.125 86.4769 3.28962 86.8743 3.58265 87.1674C3.87567 87.4604 4.2731 87.625 4.6875 87.625H59.375C59.7894 87.625 60.1868 87.4604 60.4799 87.1674C60.7729 86.8743 60.9375 86.4769 60.9375 86.0625C60.9375 85.6481 60.7729 85.2507 60.4799 84.9576C60.1868 84.6646 59.7894 84.5 59.375 84.5ZM50 47H37.5V25.125H50V47ZM80.2844 22H52.9188L50.2391 3.25H70.9094L80.2844 22ZM47.0828 3.25L49.7609 22H37.7391L40.4172 3.25H47.0828ZM16.5906 3.25H37.2609L34.5812 22H7.21562L16.5906 3.25Z" fill="black"/>
<path d="M26.5625 68.875H14.0625C13.6481 68.875 13.2507 69.0396 12.9576 69.3326C12.6646 69.6257 12.5 70.0231 12.5 70.4375C12.5 70.8519 12.6646 71.2493 12.9576 71.5424C13.2507 71.8354 13.6481 72 14.0625 72H26.5625C26.9769 72 27.3743 71.8354 27.6674 71.5424C27.9604 71.2493 28.125 70.8519 28.125 70.4375C28.125 70.0231 27.9604 69.6257 27.6674 69.3326C27.3743 69.0396 26.9769 68.875 26.5625 68.875Z" fill="black"/>
<path d="M26.5625 75.125H14.0625C13.6481 75.125 13.2507 75.2896 12.9576 75.5826C12.6646 75.8757 12.5 76.2731 12.5 76.6875C12.5 77.1019 12.6646 77.4993 12.9576 77.7924C13.2507 78.0854 13.6481 78.25 14.0625 78.25H26.5625C26.9769 78.25 27.3743 78.0854 27.6674 77.7924C27.9604 77.4993 28.125 77.1019 28.125 76.6875C28.125 76.2731 27.9604 75.8757 27.6674 75.5826C27.3743 75.2896 26.9769 75.125 26.5625 75.125Z" fill="black"/>
<path d="M26.5625 62.625H14.0625C13.6481 62.625 13.2507 62.7896 12.9576 63.0826C12.6646 63.3757 12.5 63.7731 12.5 64.1875C12.5 64.6019 12.6646 64.9993 12.9576 65.2924C13.2507 65.5854 13.6481 65.75 14.0625 65.75H26.5625C26.9769 65.75 27.3743 65.5854 27.6674 65.2924C27.9604 64.9993 28.125 64.6019 28.125 64.1875C28.125 63.7731 27.9604 63.3757 27.6674 63.0826C27.3743 62.7896 26.9769 62.625 26.5625 62.625Z" fill="black"/>
<path d="M35.9375 62.625H32.8125C32.3981 62.625 32.0007 62.7896 31.7076 63.0826C31.4146 63.3757 31.25 63.7731 31.25 64.1875C31.25 64.6019 31.4146 64.9993 31.7076 65.2924C32.0007 65.5854 32.3981 65.75 32.8125 65.75H35.9375C36.3519 65.75 36.7493 65.5854 37.0424 65.2924C37.3354 64.9993 37.5 64.6019 37.5 64.1875C37.5 63.7731 37.3354 63.3757 37.0424 63.0826C36.7493 62.7896 36.3519 62.625 35.9375 62.625Z" fill="black"/>
<path d="M35.9375 68.875H32.8125C32.3981 68.875 32.0007 69.0396 31.7076 69.3326C31.4146 69.6257 31.25 70.0231 31.25 70.4375C31.25 70.8519 31.4146 71.2493 31.7076 71.5424C32.0007 71.8354 32.3981 72 32.8125 72H35.9375C36.3519 72 36.7493 71.8354 37.0424 71.5424C37.3354 71.2493 37.5 70.8519 37.5 70.4375C37.5 70.0231 37.3354 69.6257 37.0424 69.3326C36.7493 69.0396 36.3519 68.875 35.9375 68.875Z" fill="black"/>
<path d="M35.9375 75.125H32.8125C32.3981 75.125 32.0007 75.2896 31.7076 75.5826C31.4146 75.8757 31.25 76.2731 31.25 76.6875C31.25 77.1019 31.4146 77.4993 31.7076 77.7924C32.0007 78.0854 32.3981 78.25 32.8125 78.25H35.9375C36.3519 78.25 36.7493 78.0854 37.0424 77.7924C37.3354 77.4993 37.5 77.1019 37.5 76.6875C37.5 76.2731 37.3354 75.8757 37.0424 75.5826C36.7493 75.2896 36.3519 75.125 35.9375 75.125Z" fill="black"/>
<path d="M95.8063 53.3297L77.0563 47.0797C76.7358 46.9729 76.3893 46.9729 76.0688 47.0797L57.3188 53.3297C57.0075 53.4334 56.7368 53.6324 56.5449 53.8985C56.3531 54.1647 56.2499 54.4844 56.25 54.8125V63.0937C56.2453 68.4959 57.577 73.8154 60.1266 78.5782C62.6761 83.3409 66.3644 87.3989 70.8625 90.3906L75.6953 93.6125C75.9521 93.7838 76.2538 93.8752 76.5625 93.8752C76.8712 93.8752 77.1729 93.7838 77.4297 93.6125L82.2625 90.3906C86.7607 87.3989 90.4489 83.3409 92.9984 78.5782C95.548 73.8154 96.8798 68.4959 96.875 63.0937V54.8125C96.8751 54.4844 96.7719 54.1647 96.5801 53.8985C96.3883 53.6324 96.1175 53.4334 95.8063 53.3297ZM93.75 63.0937C93.7555 67.9822 92.5512 72.7961 90.2444 77.1061C87.9377 81.4161 84.6003 85.0883 80.5297 87.7953L76.5625 90.4375L72.5953 87.7922C68.5252 85.0855 65.188 81.4138 62.8813 77.1044C60.5746 72.7949 59.37 67.9817 59.375 63.0937V55.9391L76.5625 50.2094L93.75 55.9391V63.0937Z" fill="black"/>
<path d="M76.6297 84.7563C76.7436 84.927 76.89 85.0736 77.0605 85.1878C77.231 85.302 77.4224 85.3814 77.6237 85.4216C77.8249 85.4618 78.0321 85.4619 78.2334 85.422C78.4347 85.3821 78.6262 85.303 78.7969 85.1891C84.4012 81.4683 88.3772 75.7519 89.9156 69.2031C90.0107 68.7997 89.9417 68.375 89.7237 68.0225C89.5057 67.67 89.1566 67.4185 88.7531 67.3234C88.3497 67.2283 87.925 67.2974 87.5725 67.5154C87.22 67.7334 86.9686 68.0825 86.8735 68.4859C85.5169 74.2641 82.0083 79.3077 77.0625 82.5891C76.8918 82.7029 76.7452 82.8493 76.631 83.0199C76.5168 83.1904 76.4374 83.3818 76.3972 83.583C76.357 83.7843 76.3569 83.9915 76.3968 84.1928C76.4366 84.3941 76.5158 84.5856 76.6297 84.7563Z" fill="black"/>
<path d="M89.0625 64.6562C89.4769 64.6562 89.8743 64.4916 90.1674 64.1986C90.4604 63.9056 90.625 63.5081 90.625 63.0937V60.8797C90.625 60.4653 90.4604 60.0679 90.1674 59.7748C89.8743 59.4818 89.4769 59.3172 89.0625 59.3172C88.6481 59.3172 88.2507 59.4818 87.9576 59.7748C87.6646 60.0679 87.5 60.4653 87.5 60.8797V63.0937C87.5 63.5081 87.6646 63.9056 87.9576 64.1986C88.2507 64.4916 88.6481 64.6562 89.0625 64.6562Z" fill="black"/>
</g>
<defs>
<filter id="filter0_d_1_388" x="-0.875" y="0.125" width="101.75" height="101.75" filterUnits="userSpaceOnUse" color-interpolation-filters="sRGB">
<feFlood flood-opacity="0" result="BackgroundImageFix"/>
<feColorMatrix in="SourceAlpha" type="matrix" values="0 0 0 0 0 0 0 0 0 0 0 0 0 0 0 0 0 0 127 0" result="hardAlpha"/>
<feOffset dy="4"/>
<feGaussianBlur stdDeviation="2"/>
<feComposite in2="hardAlpha" operator="out"/>
<feColorMatrix type="matrix" values="0 0 0 0 0 0 0 0 0 0 0 0 0 0 0 0 0 0 0.25 0"/>
<feBlend mode="normal" in2="BackgroundImageFix" result="effect1_dropShadow_1_388"/>
<feBlend mode="normal" in="SourceGraphic" in2="effect1_dropShadow_1_388" result="shape"/>
</filter>
</defs>
</svg>
