<svg width="100" height="100" viewBox="0 0 100 100" fill="none" xmlns="http://www.w3.org/2000/svg">
<path d="M80 8.33334H33.3333V98.3333H80C81.841 98.3333 83.3333 96.841 83.3333 95V11.6667C83.3333 9.82564 81.841 8.33334 80 8.33334Z" fill="#FEF98D"/>
<path d="M30 8.33334H33.3333V98.3333H30V8.33334Z" fill="#78B9EB"/>
<path d="M20 8.33334C18.159 8.33334 16.6667 9.82564 16.6667 11.6667V95C16.6667 96.841 18.159 98.3333 20 98.3333H30V8.33334H20Z" fill="#FEF98D"/>
<path d="M90 23.3333C89.0796 23.3333 88.3333 22.5871 88.3333 21.6667V3.33333H11.6667V21.6667C11.6667 22.5871 10.9204 23.3333 10 23.3333C9.07959 23.3333 8.33334 22.5871 8.33334 21.6667V1.66667C8.33334 0.74625 9.07959 0 10 0H90C90.9204 0 91.6667 0.74625 91.6667 1.66667V21.6667C91.6667 22.5871 90.9204 23.3333 90 23.3333Z" fill="#231F20"/>
<path d="M80 6.66666H20C17.2385 6.66666 15 8.9052 15 11.6667V95C15 97.7615 17.2385 100 20 100H80C82.7615 100 85 97.7615 85 95V11.6667C85 8.9052 82.7615 6.66666 80 6.66666ZM18.3333 95V11.6667C18.3333 10.7462 19.0796 9.99999 20 9.99999H28.3333V96.6667H20C19.0796 96.6667 18.3333 95.9204 18.3333 95ZM81.6667 95C81.6667 95.9204 80.9204 96.6667 80 96.6667H35V9.99999H80C80.9204 9.99999 81.6667 10.7462 81.6667 11.6667V95Z" fill="#231F20"/>
<path d="M40 90C39.0796 90 38.3333 89.2538 38.3333 88.3333V55C38.3333 54.0796 39.0796 53.3333 40 53.3333C40.9204 53.3333 41.6667 54.0796 41.6667 55V88.3333C41.6667 89.2538 40.9204 90 40 90Z" fill="#231F20"/>
</svg>
