<svg width="100" height="100" viewBox="0 0 100 100" fill="none" xmlns="http://www.w3.org/2000/svg">
<g clip-path="url(#clip0_1_349)">
<path d="M86.13 17.782L81.0354 22.8767C84.6568 25.4931 87.8349 28.6711 90.4513 32.2926L95.5459 27.1979L86.13 17.782Z" fill="#8DFEFE"/>
<path d="M56.6657 91.6595C75.9942 91.6595 91.663 75.9907 91.663 56.6622C91.663 37.3337 75.9942 21.665 56.6657 21.665C37.3372 21.665 21.6685 37.3337 21.6685 56.6622C21.6685 75.9907 37.3372 91.6595 56.6657 91.6595ZM53.3326 66.6615L76.4973 43.4967L53.3326 66.6615L42.2384 55.5673L53.3326 66.6615Z" fill="#8DFEFE"/>
<path d="M56.6657 93.326C76.9141 93.326 93.3296 76.9106 93.3296 56.6622C93.3296 36.4138 76.9141 19.9984 56.6657 19.9984C36.4174 19.9984 20.0019 36.4138 20.0019 56.6622C20.0254 76.9022 36.4257 93.3026 56.6657 93.326ZM54.9992 23.4165V28.3311C54.9992 29.251 55.7458 29.9977 56.6657 29.9977C57.5857 29.9977 58.3323 29.251 58.3323 28.3311V23.4165C75.3993 24.2849 89.0433 37.9271 89.9114 54.9956H83.3303C82.4104 54.9956 81.6637 55.7423 81.6637 56.6622C81.6637 57.5821 82.4104 58.3288 83.3303 58.3288H89.9114C89.0431 75.3976 75.4009 89.0398 58.3323 89.9079V84.9933C58.3323 84.0734 57.5857 83.3268 56.6657 83.3268C55.7458 83.3268 54.9992 84.0734 54.9992 84.9933V89.9079C37.9304 89.0396 24.2882 75.3974 23.42 58.3288H28.3346C29.2545 58.3288 30.0012 57.5821 30.0012 56.6622C30.0012 55.7423 29.2545 54.9956 28.3346 54.9956H23.42C24.2882 37.9271 37.9306 24.2847 54.9992 23.4165Z" fill="#231F20"/>
<path d="M92.6096 32.4975L96.7242 28.3829C97.3742 27.7329 97.3742 26.6763 96.7242 26.0265L87.3083 16.6105C86.6583 15.9606 85.6017 15.9606 84.9519 16.6105L80.8305 20.7185C74.1643 16.2172 66.3699 13.6741 58.3323 13.3741V3.33316H69.998C70.9179 3.33316 71.6646 2.58649 71.6646 1.66658C71.6646 0.746671 70.9179 0 69.998 0H43.3335C42.4135 0 41.6669 0.746671 41.6669 1.66658C41.6669 2.58649 42.4135 3.33316 43.3335 3.33316H54.9991V13.3891C40.1353 13.9557 26.6063 22.1167 19.1687 34.9974H10.0028C9.08288 34.9974 8.33621 35.7441 8.33621 36.664C8.33621 37.5839 9.08288 38.3306 10.0028 38.3306H20.0021C20.0455 38.3306 20.0822 38.3089 20.1253 38.3056C20.7253 38.314 21.2835 37.9939 21.5802 37.4724C32.1826 18.0939 56.4874 10.9796 75.8659 21.5837C95.2444 32.1879 102.359 56.4909 91.7546 75.8694C81.1504 95.2479 56.8474 102.362 37.4689 91.7581C30.7627 88.0884 25.2481 82.5754 21.5802 75.8694C21.2853 75.3462 20.7302 75.0228 20.1287 75.0278C20.0853 75.0278 20.047 75.0028 20.0021 75.0028H10.0028C9.08288 75.0028 8.33621 75.7495 8.33621 76.6694C8.33621 77.5893 9.08288 78.336 10.0028 78.336H19.1687C31.1277 99.0528 57.6173 106.151 78.3325 94.1915C99.0476 82.2324 106.147 55.7429 94.1879 35.0277C93.6911 34.1656 93.1645 33.3225 92.6096 32.4975ZM83.5504 22.7249L86.1302 20.1451L93.1897 27.2046L90.6099 29.7844C88.5333 27.168 86.1652 24.7964 83.5504 22.7183V22.7249Z" fill="#231F20"/>
<path d="M16.6689 56.6622C16.6689 55.7423 15.9223 54.9956 15.0024 54.9956H1.67009C0.75018 54.9956 0.00350952 55.7423 0.00350952 56.6622C0.00350952 57.5821 0.75018 58.3288 1.67009 58.3288H15.0024C15.9223 58.3288 16.6689 57.5821 16.6689 56.6622Z" fill="#231F20"/>
<path d="M5.00307 48.3295H16.6688C17.5887 48.3295 18.3353 47.5828 18.3353 46.6629C18.3353 45.743 17.5887 44.9964 16.6688 44.9964H5.00307C4.08316 44.9964 3.33649 45.743 3.33649 46.6629C3.33649 47.5828 4.08316 48.3295 5.00307 48.3295Z" fill="#231F20"/>
<path d="M18.3353 66.6615C18.3353 65.7416 17.5887 64.9949 16.6688 64.9949H5.00307C4.08316 64.9949 3.33649 65.7416 3.33649 66.6615C3.33649 67.5814 4.08316 68.3281 5.00307 68.3281H16.6688C17.5889 68.3279 18.3353 67.5814 18.3353 66.6615Z" fill="#231F20"/>
<path d="M52.1545 67.8396C52.8045 68.4896 53.8611 68.4896 54.5109 67.8396L77.6757 44.6749C78.3157 44.0134 78.2973 42.9583 77.6341 42.3185C76.9874 41.6952 75.9641 41.6952 75.3192 42.3185L53.3326 64.3049L43.4167 54.389C42.7552 53.749 41.7001 53.7673 41.0603 54.4306C40.437 55.0773 40.437 56.1005 41.0603 56.7454L52.1545 67.8396Z" fill="#231F20"/>
</g>
<defs>
<clipPath id="clip0_1_349">
<rect width="100" height="100" fill="white"/>
</clipPath>
</defs>
</svg>
